<svg version="1" xmlns="http://www.w3.org/2000/svg" width="401.333" height="401.333" viewBox="0 0 301.000000 301.000000"><path d="M136.5 57c-19.5 2.2-33.3 13.5-39.7 32.6-2 6-2.3 8.9-2.3 21.4.1 14.7 2.1 26.5 4.8 28.2.7.4 11.9.8 25 .8H148v-36h-11v23h-15c-13.4 0-15.1-.2-15.8-1.8-.4-.9-.7-7.6-.7-14.7 0-11.7.3-13.6 2.6-19.2 4.2-9.9 9.2-15 19.2-19.2 5.5-2.3 7.5-2.6 18.2-2.5 10.1 0 12.9.3 17.7 2.3 6.7 2.6 15.7 10.4 19.3 16.5 6.3 11 7.5 29.6 2.9 44.9-.5 1.6 0 1.8 5.2 1.5l5.9-.3 1.2-5.5c1.8-7.8 1.7-26.2-.2-33.3-4.9-18.6-18.6-32.7-36-37-7.6-1.9-17.3-2.5-25-1.7zM96 197.5V230h11v-53h34.8l.7 9.6c.4 5.2.4 15.1 0 22l-.7 12.4H153l.2-21.8.3-21.7 16.1-.3 16.1-.2.6 10c.3 5.6.3 16.8 0 25.1l-.6 14.9H198l-.2-30.8-.3-30.7-50.7-.3L96 165v32.5z"/></svg>